PathFileType	4	(X/Y/Z)	24_1_52_p1_0-246_filt_butterworth.trc
DataRate	CameraRate	NumFrames	NumMarkers	Units	OrigDataRate	OrigDataStartFrame	OrigNumFrames
59.0	59.0	6	27	m	59.0	215	246
Frame#	Time	RHip			RKnee			RAnkle			RBigToe			RSmallToe			RHeel			LHip			LKnee			LAnkle			LBigToe			LSmallToe			LHeel			Neck			Head			Nose			RShoulder			RElbow			RWrist			RThumb			RIndex			RPinky			LShoulder			LElbow			LWrist			LThumb			LIndex			LPinky			
		X1	Y1	Z1	X2	Y2	Z2	X3	Y3	Z3	X4	Y4	Z4	X5	Y5	Z5	X6	Y6	Z6	X7	Y7	Z7	X8	Y8	Z8	X9	Y9	Z9	X10	Y10	Z10	X11	Y11	Z11	X12	Y12	Z12	X13	Y13	Z13	X14	Y14	Z14	X15	Y15	Z15	X16	Y16	Z16	X17	Y17	Z17	X18	Y18	Z18	X19	Y19	Z19	X20	Y20	Z20	X21	Y21	Z21	X22	Y22	Z22	X23	Y23	Z23	X24	Y24	Z24	X25	Y25	Z25	X26	Y26	Z26	X27	Y27	Z27	
215	3.6440677966101696	0.43589293286499103	0.5279713506792224	0.8182543126868925	0.42998697287187126	0.612744973504207	1.2928185802709724	0.42275996679242955	0.6676690317254508	1.7037006785776645	0.41884552719066703	0.5324772048955985	1.7207857218009084	0.4737554009556195	0.5345612509563084	1.7078631890573779	0.4060846499347327	0.7007971370502346	1.7397947566366627	0.217962529018406	0.5086972715335321	0.8332955813226135	0.199749576329615	0.567957734624664	1.276133636383733	0.2005863990074055	0.6612751938992805	1.7094267899586202	0.2554294415876085	0.4857765306172645	1.7096639774629332	0.1938172313702009	0.5261094095130843	1.7233772094965187	0.19375054468202224	0.7003481416694083	1.752057873537251	0.35646539391127946	0.40679565536745727	0.25276909187956853	0.35285888235772467	0.3523159599689136	0.030080881554958742	0.3636413755420901	0.2882648745597568	0.14295918921886458	0.5175839317701174	0.4617498208979186	0.35439977382052407	0.5164085731540712	0.44217797874870185	0.6233939244025261	0.430363826443501	0.3649276728594136	0.8455890072275892	0.3381537366818442	0.36680646772873227	0.9099456877817649	0.3373295313325868	0.3654384380251796	0.9316321734850551	0.32971815357135986	0.37737384474564195	0.9271095829001947	0.1919959978060622	0.4666172568565787	0.3659699763810166	0.16950091551872287	0.42332243839160544	0.6240923681382264	0.26121009587725535	0.3689835941065488	0.8331950094591821	0.35693027604277744	0.3489569919238233	0.8684635326675595	0.3652342116795426	0.3604265909537017	0.9185368953306623	0.33445377111344166	0.3730388034216123	0.942882219301032
216	3.6610169491525424	0.43642047939768214	0.5282621919108634	0.8179198948529716	0.42901019364937215	0.6125140665270942	1.2937077958240448	0.42272534254772787	0.6675547377349663	1.7037249301478508	0.4188427683789702	0.5324042133687391	1.721838987140056	0.4738290240744087	0.5347177153575033	1.70783364660456	0.4053744701823659	0.7020607505188435	1.7407565971584105	0.2191483999556652	0.5090024873797759	0.8338773562733997	0.19977927959784428	0.5703272886789629	1.2791658898007228	0.20057900440061222	0.6612699167019827	1.7093719670895084	0.2548744212529901	0.48221096273280395	1.7075011399672062	0.1937379932038822	0.5260303954157058	1.7233349579981543	0.19519998443003034	0.6965670869000199	1.7517328649757444	0.3565329937250834	0.4065903730924578	0.251647172381514	0.3529320592615917	0.3522043318828577	0.029992589479180834	0.36309452797170816	0.28516561779205224	0.14219216975101948	0.5170986285609651	0.46228085613941117	0.35438938350872967	0.5164528912890042	0.44216924024497206	0.6238959028823159	0.4306084652561876	0.36539700711894696	0.8467957202161872	0.3379795345661838	0.3669220790526717	0.9098490358174122	0.3384490107552372	0.36587657950099595	0.931688766513777	0.32932248815104653	0.3771935742479831	0.926633047714473	0.19188368347300921	0.46646832375515046	0.3651561750635773	0.16931260475613688	0.42362978490613257	0.6249031365415161	0.2612778561629001	0.370776200985684	0.8338059912966911	0.35623741460270547	0.35041274723664995	0.8707589303325431	0.3651661623643553	0.36110073998394404	0.9194641995482904	0.33372128853504074	0.3697101277419597	0.9426499210445501
217	3.6779661016949152	0.4365247247934247	0.5283043365689228	0.8187008607600381	0.42891872418003507	0.6127424736168572	1.2960412978479285	0.42274355249833484	0.6676714858692798	1.7038174255957248	0.4183224137961884	0.5336054887505993	1.7246514415933376	0.4737947554220539	0.5349851702495798	1.7077904313731316	0.40364633069637385	0.7064478491326742	1.7430377687662746	0.2196865308863465	0.5092801506189251	0.8347440219029403	0.20013808228418817	0.5753701784172364	1.2830970475077794	0.20060442204234263	0.6612746526395896	1.7093509244254206	0.25466803587694165	0.480799259303672	1.706897307022345	0.19357316536080107	0.525908224919564	1.7231950372843698	0.19559396374565682	0.6953134957525906	1.7522655245587935	0.3565869552961243	0.4063985193097105	0.25079222494190945	0.3535219563712704	0.35087184947025596	0.029960908520512863	0.3623851348236405	0.28149760911465643	0.14116192654819015	0.5154991359589606	0.46227717358631604	0.35473016684053504	0.5165081873046333	0.4421880410678311	0.6235217563576726	0.4306317687044893	0.36517232560915763	0.8470837325153825	0.33794829020940065	0.3653174663075273	0.9098312952187163	0.33856674883259713	0.3658442093085156	0.9315277050747103	0.3289502227765008	0.37692537735322956	0.9261372417600486	0.19175886039333503	0.46612312496279723	0.3630733927651988	0.16891431410487945	0.4243284227568845	0.6249910816229788	0.26000881965227596	0.371019329639122	0.8338606516441391	0.35576335645020557	0.3487650896834833	0.8716227596930757	0.36467319160352524	0.3610021200008181	0.920173670632902	0.33206025348710505	0.3648509530084232	0.9419018507784231
218	3.694915254237288	0.4364990491486427	0.5280657807672829	0.8203915558931745	0.4293366559681055	0.6132093152000051	1.2991246522643052	0.42285503576048933	0.6678756225110941	1.7040050908757467	0.41696519860917924	0.536851336997846	1.728415854800115	0.47381115004239877	0.5353241160252402	1.7078262754430087	0.40139734361876267	0.712546154998455	1.745996608812429	0.2197587184269823	0.5094317932535037	0.8348419782743742	0.2007948465993972	0.5810926929451324	1.2859892191106703	0.20065662218005087	0.6612723840831433	1.709339141443985	0.25465028803721235	0.4807418885615649	1.707020559517173	0.19348765846920207	0.5258527526821768	1.7230358471244838	0.195516033535705	0.6954555417462265	1.7526593841318567	0.3566170057363377	0.40624378026600777	0.25046602170616267	0.3549006106965447	0.34764960201573886	0.03007171767429668	0.36194572915100187	0.278746867308844	0.14071861380291462	0.5127808326204546	0.4607468094860929	0.3560516749600662	0.5165283763707528	0.44225192208445196	0.6228543207879496	0.43015314006118144	0.36424687243612236	0.8467247756280448	0.33787285199049805	0.3608811408072907	0.909562951584416	0.33746721272890307	0.3643888832699341	0.9308818827436598	0.3287382613805888	0.37674354411011796	0.9261984780156903	0.1916476307218518	0.4656701046527938	0.3603261559905344	0.16883849734883827	0.4257301914057148	0.6236703405455987	0.257747256711225	0.36759919249066597	0.8327662764017475	0.35504303604699206	0.3439795918140235	0.8706013791601362	0.36320690934427635	0.35881488507072345	0.9201526632753003	0.32990130209515744	0.3611567066539571	0.9406013469551577
219	3.711864406779661	0.436498878846878	0.5273195540460063	0.8219237009189965	0.42965939317161145	0.6135328634876029	1.3014174894470467	0.42303211043560895	0.6677359275337027	1.7042300915706643	0.4151753446616017	0.5411781381128317	1.7313057278877642	0.4739133216397648	0.5357602431855254	1.7080212616019752	0.3996924412653001	0.7171457124704143	1.7482126452202305	0.21962701802335438	0.5092170204173243	0.833340220777601	0.2014502554931101	0.585016311679565	1.2873018801970582	0.2007040028113402	0.661254854905509	1.7093329053569224	0.2546577564694166	0.48104061303101064	1.7072295711481922	0.1934968022179391	0.5258895946521814	1.7229934885303309	0.19552182677506663	0.6956673953827576	1.7522695817273706	0.35662839982949845	0.40612496888892125	0.2504872052973149	0.35668848731206965	0.34343008610646736	0.030278612912268243	0.36221123580731124	0.27637192186468396	0.1414273703922251	0.5102360505911041	0.4571277062617489	0.35784079172776656	0.5164235632096419	0.44241910918318567	0.6224501102838658	0.4290368766948288	0.36304834696594673	0.8462450510173591	0.3377022775165749	0.35368047939921105	0.9086594363682604	0.33562235531350504	0.3608241676546296	0.9297288063539741	0.3286814693871849	0.37665541136266817	0.9268811694581081	0.19159102292479824	0.4653180332981349	0.35824141080423183	0.1690099793191504	0.42685421189064643	0.6215066924258467	0.2555610505324426	0.36142955688187384	0.8310258211806711	0.35356187645613824	0.3375230906377203	0.8684250225328912	0.36074839153261945	0.3536473415743753	0.9188648457098197	0.3281866205084403	0.359873030723024	0.9389346302044399
220	3.7288135593220337	0.4364984203967952	0.5260288581970806	0.8222437166988604	0.4296243427682381	0.6134767107492953	1.3022207319778416	0.4231701248957862	0.667138672059878	1.7043773727984495	0.4138380420083151	0.5444302823120495	1.7325458041686992	0.4739822690547587	0.5359150875578478	1.708223619050087	0.39900899169199855	0.7188434379739593	1.7490581259838573	0.21945325343370495	0.5085191421589074	0.8309613597216209	0.20186338632688458	0.5864148435451866	1.288377573155556	0.20072467987200773	0.6612186592184719	1.7093305922163733	0.2546657212714682	0.4812909335549457	1.7073379961750512	0.19357005331095936	0.5259598040510793	1.7231098725513	0.19579240794281177	0.6954585729901344	1.750980221217784	0.35662586333804164	0.40604740967569464	0.2505932434937357	0.35805204264599383	0.34019645157490946	0.030453428858288438	0.3632654131739284	0.27212973226299436	0.14286999074630474	0.5092252865228113	0.4525871219230894	0.35902002905433267	0.5161792737077062	0.4427135712892877	0.6223464669204555	0.4276377507550794	0.362202679168037	0.8460116788378401	0.3375476574119568	0.3463740492051017	0.9071235584266537	0.3339930290594534	0.35616414832478915	0.9283228923470213	0.32869797128641887	0.3766396209417657	0.9276848736152774	0.19161380309425077	0.465147929383377	0.357437447598253	0.16915514432555961	0.4273150222775839	0.619730570138124	0.2541697155581141	0.3554836308682034	0.8295956606539033	0.3508871650012372	0.3321791340487149	0.866483161825586	0.3578892416376682	0.3469508305664238	0.9166267692706954	0.3273886546137751	0.3602017326128651	0.937377320919679
